<?xml version="1.0" encoding="UTF-8" standalone="no"?>
<!-- Created with Inkscape (http://www.inkscape.org/) -->

<svg
   xmlns:dc="http://purl.org/dc/elements/1.1/"
   xmlns:cc="http://creativecommons.org/ns#"
   xmlns:rdf="http://www.w3.org/1999/02/22-rdf-syntax-ns#"
   xmlns:svg="http://www.w3.org/2000/svg"
   xmlns="http://www.w3.org/2000/svg"
   xmlns:sodipodi="http://sodipodi.sourceforge.net/DTD/sodipodi-0.dtd"
   xmlns:inkscape="http://www.inkscape.org/namespaces/inkscape"
   width="210mm"
   height="297mm"
   viewBox="0 0 210 297"
   version="1.1"
   id="svg8"
   inkscape:version="0.92.4 (5da689c313, 2019-01-14)"
   sodipodi:docname="logo.svg">
  <defs
     id="defs2" />
  <sodipodi:namedview
     id="base"
     pagecolor="#ffffff"
     bordercolor="#666666"
     borderopacity="1.0"
     inkscape:pageopacity="0.0"
     inkscape:pageshadow="2"
     inkscape:zoom="2.8"
     inkscape:cx="444.33998"
     inkscape:cy="711.84239"
     inkscape:document-units="mm"
     inkscape:current-layer="layer1"
     showgrid="false"
     inkscape:window-width="3840"
     inkscape:window-height="1973"
     inkscape:window-x="-18"
     inkscape:window-y="-18"
     inkscape:window-maximized="1" />
  <metadata
     id="metadata5">
    <rdf:RDF>
      <cc:Work
         rdf:about="">
        <dc:format>image/svg+xml</dc:format>
        <dc:type
           rdf:resource="http://purl.org/dc/dcmitype/StillImage" />
        <dc:title></dc:title>
      </cc:Work>
    </rdf:RDF>
  </metadata>
  <g
     inkscape:label="Capa 1"
     inkscape:groupmode="layer"
     id="layer1">
    <path
       style="fill:#000000;stroke-width:0.26458332"
       d="m 71.56449,150.75584 v -7.67291 h 1.61227 c 1.404535,0 1.630603,0.0701 1.754563,0.54413 0.10014,0.38293 0.269158,0.48854 0.570543,0.35648 2.70188,-1.18392 4.466299,-1.41972 5.958419,-0.79627 1.58536,0.66241 1.745872,1.1581 1.745872,5.39163 0,5.53947 -0.274865,5.86787 -5.09323,6.08531 l -2.84427,0.12835 v 1.8181 1.8181 H 73.416573 71.56449 Z m 7.928192,0.54656 c 0.294185,-0.54969 0.378719,-4.19885 0.113292,-4.89054 -0.120441,-0.31387 -0.533927,-0.41762 -1.653646,-0.41491 -2.75867,0.007 -2.683671,-0.0791 -2.683671,3.06996 v 2.74727 h 1.975067 c 1.6819,0 2.01572,-0.076 2.248958,-0.51178 z m -41.001109,-4.25072 v -7.67292 l 5.357812,5.3e-4 c 4.570833,2.6e-4 5.493835,0.0684 6.283854,0.46302 1.423446,0.71109 1.851187,1.84367 1.851674,4.90288 7.93e-4,4.74333 -0.614014,5.28651 -6.151153,5.43487 l -3.638021,0.0975 v 2.22359 2.22358 h -1.852083 -1.852083 v -7.67292 z m 9.373809,-0.1512 c 0.285496,-0.28549 0.415774,-0.91273 0.415774,-2.00176 0,-2.54901 -0.07694,-2.60954 -3.3166,-2.60954 h -2.768817 v 2.33715 c 0,1.28543 0.07937,2.41653 0.17639,2.51354 0.09701,0.097 1.279134,0.17639 2.626934,0.17639 1.874991,0 2.548197,-0.0976 2.866319,-0.41578 z m 8.840198,7.06969 c -0.743392,-0.66422 -0.858814,-0.95447 -0.965375,-2.42768 -0.140052,-1.9362 0.351099,-3.1553 1.495541,-3.71213 0.386488,-0.18805 1.982624,-0.39382 3.546973,-0.45727 2.530631,-0.10265 2.844271,-0.16841 2.844271,-0.59637 0,-0.26455 -0.187135,-0.66813 -0.415857,-0.89685 -0.35125,-0.35125 -0.885616,-0.38903 -3.439583,-0.24316 l -3.023727,0.1727 v -1.21474 -1.21474 l 1.124479,-0.14011 c 0.618464,-0.0771 2.280703,-0.21419 3.693864,-0.30472 2.928739,-0.18762 4.149974,0.0899 4.967102,1.1287 0.491879,0.62532 0.533305,1.06571 0.533305,5.66939 v 4.9914 h -1.5875 c -1.41111,0 -1.5875,-0.0588 -1.5875,-0.52916 0,-0.65866 -0.18455,-0.65932 -1.624753,-0.006 -0.776552,0.35237 -1.735492,0.52526 -2.935134,0.52917 -1.589522,0.005 -1.872864,-0.0756 -2.626106,-0.74861 z m 6.458389,-2.4637 c 0.254661,-0.13205 0.463021,-0.53855 0.463021,-0.90336 0,-0.65757 -0.01765,-0.66261 -2.050521,-0.586 -1.948141,0.0734 -2.055077,0.10956 -2.141794,0.72391 -0.13565,0.96102 0.616362,1.38929 2.069864,1.17879 0.658024,-0.0953 1.404768,-0.2813 1.65943,-0.41334 z m 25.62936,2.78667 c -1.057712,-0.74085 -1.355159,-1.92156 -1.338906,-5.31474 0.01683,-3.51083 0.312388,-4.67201 1.393315,-5.47382 0.644302,-0.47793 1.18895,-0.5649 3.96875,-0.63374 2.691336,-0.0666 3.374472,-10e-4 4.148002,0.39688 1.382901,0.71183 1.851181,1.88624 1.851673,4.64385 l 4.11e-4,2.31511 h -3.853223 -3.853222 l 0.08291,0.85989 0.08291,0.8599 3.50573,-8e-4 3.505729,-7.9e-4 v 1.21982 1.21982 l -1.626312,0.16998 c -3.226983,0.33729 -7.201498,0.2052 -7.867766,-0.26147 z m 6.268146,-7.57219 -0.08136,-1.12448 -1.695699,-0.0799 c -1.88714,-0.0889 -2.130155,0.0782 -2.136708,1.46892 l -0.0041,0.8599 h 1.999588 1.999589 z m 8.253015,2.18281 v -5.82083 h 1.5875 c 1.51694,0 1.5875,0.0294 1.5875,0.66145 0,0.8159 0.0391,0.81593 1.42952,0.001 0.61978,-0.36321 1.68277,-0.73658 2.36222,-0.82971 l 1.23534,-0.16931 v 1.5852 1.5852 l -1.67665,0.15657 c -0.92216,0.0861 -1.99372,0.30103 -2.38125,0.4776 l -0.7046,0.32104 v 3.92628 3.92628 h -1.71979 -1.71979 z m 12.43542,-1.85208 v -7.67292 l 2.05052,0.001 2.05052,0.001 2.48048,4.36904 c 1.36427,2.40297 2.58466,4.43343 2.71198,4.51212 0.12882,0.0796 0.2315,-1.85891 0.2315,-4.37046 v -4.51335 h 1.85208 1.85208 v 7.67292 7.67291 h -1.93068 -1.93069 l -2.63337,-4.62799 c -1.44836,-2.54539 -2.72268,-4.62898 -2.83182,-4.6302 -0.10914,-0.001 -0.19844,2.08137 -0.19844,4.62798 v 4.63021 h -1.85208 -1.85208 z m 18.98803,6.90087 -0.86407,-0.77205 v -4.23372 c 0,-4.12412 0.0167,-4.25152 0.64561,-4.92095 0.95807,-1.01982 2.16938,-1.26491 5.75715,-1.1649 2.76789,0.0772 3.32209,0.16726 3.96376,0.64438 1.24057,0.92243 1.39939,1.53374 1.40254,5.39845 0.003,3.10741 -0.0658,3.68455 -0.52538,4.43837 -0.29057,0.47656 -0.83366,0.98258 -1.20686,1.12447 -0.37321,0.1419 -2.39534,0.25799 -4.49362,0.25799 h -3.81506 z m 7.07343,-5.04879 v -3.04271 h -2.11667 -2.11667 l -0.0759,2.76024 c -0.0418,1.51813 -0.0138,2.92216 0.0621,3.12005 0.10372,0.27029 0.64928,0.34058 2.1926,0.28248 l 2.05453,-0.0773 z m 10.21738,5.38938 c -1.04515,-0.73205 -1.35384,-1.92879 -1.35384,-5.24859 v -3.05121 h -0.66146 c -0.62538,0 -0.66146,-0.0794 -0.66146,-1.45521 0,-1.37285 0.0371,-1.4552 0.65642,-1.4552 0.48717,0 0.69183,-0.17055 0.79375,-0.66146 0.0755,-0.3638 0.19913,-0.95912 0.27466,-1.32292 0.12801,-0.61652 0.24485,-0.66146 1.71979,-0.66146 h 1.58246 v 1.32292 1.32292 h 1.32292 1.32292 v 1.4552 1.45521 h -1.32292 -1.32292 v 2.76882 c 0,3.19586 0.0861,3.3166 2.36386,3.3166 h 1.34031 v 1.32292 1.32291 h -2.71925 c -2.08576,0 -2.86276,-0.10051 -3.33524,-0.43145 z m 10.87435,0.0185 c -1.14505,-0.80203 -1.3803,-1.71051 -1.37987,-5.32861 8e-4,-5.44197 0.66686,-6.16388 5.68814,-6.16388 4.73363,0 5.68737,0.85385 5.68813,5.0924 l 4.1e-4,2.31511 h -3.85322 -3.85323 l 0.0829,0.85989 0.0829,0.8599 3.50573,-0.0136 3.50573,-0.0136 v 1.23211 1.23211 l -1.78594,0.16867 c -3.40674,0.32175 -7.04145,0.20795 -7.6817,-0.2405 z m 6.28859,-7.32613 c -0.007,-1.39073 -0.24957,-1.5578 -2.13671,-1.46892 l -1.6957,0.0799 -0.0814,1.12448 -0.0814,1.12448 h 1.99959 1.99959 l -0.004,-0.8599 z M 78.985566,128.29007 c -0.756074,-1.41273 -1.317787,-5.67931 -1.753524,-13.31912 -0.187206,-3.28227 -0.486796,-3.57592 -1.815703,-1.77968 -0.428096,0.57864 -0.886664,1.05207 -1.01904,1.05207 -0.331772,0 0.009,-3.2918 0.655862,-6.335 C 77.511585,96.342049 85.46976,85.632402 95.279335,80.689139 l 1.622137,-0.817433 -0.478129,1.536229 c -1.07977,3.469304 -1.347258,8.990377 -0.657325,13.567391 1.397801,9.273014 6.718412,15.297534 15.011792,16.997834 2.73401,0.56051 3.49245,0.52926 4.30097,-0.17721 0.66108,-0.57765 0.74441,-1.0388 2.80788,-15.537221 1.16962,-8.21805 2.17394,-14.989272 2.23183,-15.047157 0.0579,-0.05789 0.79528,0.28321 1.63864,0.757997 5.77946,3.25362 10.6868,8.326037 12.88589,13.319378 3.52746,8.009553 3.28665,18.192493 -0.6203,26.230443 -2.55264,5.25166 -5.46308,7.25927 -10.54205,7.2719 -1.84615,0.005 -2.18599,-0.29701 -1.74446,-1.54818 0.23007,-0.65193 0.35359,-0.69724 1.92474,-0.70591 1.53868,-0.008 1.73119,-0.0748 2.30509,-0.79375 0.94033,-1.17801 1.45441,-2.90983 1.61472,-5.43957 0.18268,-2.88272 -0.25136,-5.47417 -1.26829,-7.57247 -0.94681,-1.95361 -2.24323,-3.10619 -3.95605,-3.51709 -2.65179,-0.63615 -4.50986,0.65854 -5.45286,3.79952 -0.63142,2.10316 -0.63124,8.56786 2.6e-4,12.58704 0.23843,1.51722 0.4335,2.85668 0.4335,2.97657 9e-5,0.11989 -2.24938,0.21798 -4.99873,0.21798 h -4.99881 l -0.10582,-4.0349 c -0.0994,-3.7896 -0.15195,-4.1304 -0.86473,-5.60593 -0.92193,-1.90847 -2.48858,-3.52807 -4.25227,-4.39595 -1.8122,-0.89176 -5.711481,-0.93264 -7.566105,-0.0793 -1.580959,0.72741 -3.250853,2.2467 -4.149444,3.77521 -0.679982,1.15665 -0.719082,1.42082 -0.845254,5.71067 l -0.132292,4.49792 -5.080886,0.0718 c -4.808607,0.068 -5.095703,0.0441 -5.357413,-0.44488 z M 125.55984,98.65328 c 0.52785,-0.527841 0.7734,-1.038336 0.7734,-1.607852 0,-1.189445 -1.24045,-2.38125 -2.47843,-2.38125 -1.42183,0 -2.40434,0.973077 -2.40434,2.38125 0,2.222847 2.51166,3.205572 4.10937,1.607852 z m -14.21119,12.02 c -9.66644,-2.10226 -14.853946,-10.36133 -14.29299,-22.755976 0.25695,-5.677437 1.289204,-8.68934 3.86179,-11.267909 2.04497,-2.049722 3.79558,-2.712047 7.15954,-2.708737 2.01669,0.002 2.89344,0.13649 4.4354,0.680456 3.18561,1.123798 5.89317,3.193158 6.30028,4.815244 0.088,0.35061 -0.26507,3.652411 -0.7846,7.337335 -0.94444,6.698731 -1.89048,13.719657 -2.72099,20.193607 -0.24269,1.89177 -0.55457,3.58841 -0.69307,3.77032 -0.31137,0.40895 -1.16661,0.39209 -3.26536,-0.0643 z"
       id="path21"
       inkscape:connector-curvature="0" />
  </g>
</svg>
