<?xml version="1.0" encoding="UTF-8"?>
<!DOCTYPE svg PUBLIC "-//W3C//DTD SVG 1.1//EN" "http://www.w3.org/Graphics/SVG/1.1/DTD/svg11.dtd">
<!-- Creator: CorelDRAW X8 -->
<svg xmlns="http://www.w3.org/2000/svg" xml:space="preserve" width="210mm" height="297mm" version="1.1" style="shape-rendering:geometricPrecision; text-rendering:geometricPrecision; image-rendering:optimizeQuality; fill-rule:evenodd; clip-rule:evenodd"
viewBox="0 0 21000 29700"
 xmlns:xlink="http://www.w3.org/1999/xlink">
 <defs>
  <style type="text/css">
   <![CDATA[
    .fil0 {fill:black}
   ]]>
  </style>
   <clipPath id="id0">
    <rect x="1697" y="8403" width="15841" height="9288"/>
   </clipPath>
 </defs>
 <g id="Capa_x0020_1">
  <metadata id="CorelCorpID_0Corel-Layer"/>
  <g style="clip-path:url(#id0)">
   <image x="1697" y="8403" width="15841" height="9288" xlink:href="Sin título-1_Images\Sin título-1_ImgID1.png"/>
  </g>
  <g id="_1921688406480">
   <path class="fil0" d="M6421 13162l0 84c0,33 -3,3 9,26 89,-24 225,-360 265,-138 24,134 36,522 55,706 4,39 8,85 10,118 8,144 29,308 54,445 12,67 28,148 48,205 26,73 42,111 143,111l551 0c117,0 211,-10 322,-8 124,3 44,-40 68,-261 44,-392 -58,-575 151,-848 152,-198 372,-347 661,-347 226,0 385,5 560,134 125,92 195,172 277,307 103,171 105,261 111,465 1,47 9,76 9,135 -1,48 0,96 0,144 -1,59 8,81 8,135 0,51 0,102 0,153l500 0c132,0 237,-9 364,-8 40,0 58,-4 86,-7 70,-7 70,17 33,-198 -36,-218 -61,-439 -60,-693 1,-76 -12,-101 -2,-172 7,-55 1,-126 2,-184 0,-47 10,-128 15,-171 20,-152 59,-295 157,-410 158,-187 429,-157 609,-22 365,271 416,1121 195,1504 -16,28 -61,83 -85,100 -37,27 -109,24 -171,24 -55,0 -133,-2 -167,20 0,0 -183,217 116,217 362,0 529,-77 740,-242 52,-40 46,-38 80,-81 11,-14 17,-18 28,-31 15,-17 37,-44 49,-61 60,-83 119,-177 167,-274 357,-720 439,-1602 188,-2392 -91,-286 -245,-583 -425,-794 -122,-144 -189,-224 -330,-348 -182,-160 -202,-190 -455,-358 -60,-40 -290,-184 -355,-186 -3,31 -12,70 -17,102 -6,33 -11,71 -16,103 -81,476 -145,1008 -217,1493l-158 1061c-11,66 -23,143 -41,205 -6,22 -24,63 -38,80 -67,83 -192,74 -288,59 -371,-59 -674,-172 -943,-386 -26,-21 -44,-36 -70,-57 -78,-62 -174,-175 -235,-257 -317,-422 -441,-932 -441,-1615 0,-262 38,-579 119,-821 9,-24 23,-81 33,-102 -53,12 -271,136 -341,175 -240,133 -595,420 -783,623l-244 280c-55,70 -100,132 -152,204 -362,497 -610,1126 -713,1734 -16,100 -36,210 -36,320z"/>
   <path class="fil0" d="M8690 10816c0,476 118,1097 430,1475 151,183 193,223 364,348 213,157 640,311 891,311 100,0 99,-61 122,-200 17,-100 28,-184 41,-289 25,-187 52,-381 76,-576 22,-189 51,-380 77,-575l118 -855c12,-90 31,-198 39,-291l29 -294c13,-93 -12,-158 -85,-233 -54,-56 -107,-104 -173,-148 -194,-132 -472,-256 -735,-256 -259,0 -453,0 -657,147 -445,322 -537,833 -537,1436z"/>
   <path class="fil0" d="M2840 17319l381 0 0 -449 237 0c86,0 397,-19 466,-33 93,-19 169,-52 211,-120 82,-131 75,-574 29,-714 -68,-206 -248,-225 -478,-225l-846 0 0 1541z"/>
   <path class="fil0" d="M10561 15803l0 1490c0,20 6,26 26,26l355 0c0,-141 -6,-591 8,-713 3,-33 0,-75 0,-109 1,-49 9,-59 9,-101 37,27 253,408 277,451 44,82 87,152 132,232l133 240 314 0c39,0 84,11 84,-26l0 -1490c0,-19 -6,-25 -25,-25l-356 0c0,112 6,626 -6,713l-11 167c-32,-23 -110,-167 -136,-211 -20,-36 -43,-74 -65,-112l-259 -453c-25,-46 -48,-104 -73,-104l-381 0c-20,0 -26,6 -26,25z"/>
   <path class="fil0" d="M6514 16243c-77,-114 9,-93 -364,-93l0 1541 373 0 0 -364 296 -17c548,-6 500,-143 500,-770 0,-115 -12,-244 -63,-310 -55,-72 -195,-105 -310,-105 -83,0 -160,23 -225,45l-207 73z"/>
   <path class="fil0" d="M12373 16895c0,324 -23,235 91,341 19,18 78,83 104,83l559 0c39,-2 52,-9 101,-9 57,1 152,-6 192,-37 90,-68 139,-155 139,-310 0,-142 15,-526 -29,-640 -78,-200 -305,-198 -488,-198 -162,0 -368,-17 -503,48 -216,103 -140,271 -159,433 -9,86 -7,191 -7,289z"/>
   <path class="fil0" d="M15142 16667c0,197 -28,487 128,600 121,89 660,46 838,28 42,-5 89,-10 126,-10l0 -254 -703 0c0,-32 -8,-142 -17,-161l771 0c0,-559 51,-754 -576,-754l-261 19c-271,38 -306,217 -306,532z"/>
   <path class="fil0" d="M7733 16760c0,597 123,559 652,559 186,0 345,-34 441,-34l0 -254 -703 0c0,-65 -9,-95 -9,-161l762 0c0,-275 50,-598 -194,-711 -118,-55 -551,-39 -678,-17 -268,46 -271,318 -271,618z"/>
   <path class="fil0" d="M4668 16176l0 254c144,-4 306,-26 492,-26 70,0 194,-11 194,119 0,81 -428,29 -619,91 -47,16 -105,70 -127,110 -52,95 -59,283 -26,401 31,107 149,194 281,194 394,0 391,-102 491,-102 35,0 26,49 34,85 124,29 147,17 296,17 20,0 26,-6 26,-26 0,-103 6,-542 -4,-606 -30,-199 112,-562 -386,-562 -118,0 -216,11 -330,17l-322 34z"/>
   <path class="fil0" d="M13923 16260c0,191 -1,187 135,187 0,185 -22,622 66,755 67,100 154,117 315,117l364 0 0 -271c-425,0 -364,46 -364,-601l263 0 0 -297 -263 0 0 -245c0,-43 -78,-26 -195,-26 -47,0 -110,0 -132,37 -16,25 -29,109 -36,142 -38,191 -153,-18 -153,202z"/>
   <path class="fil0" d="M9647 16176c-18,-13 -28,-26 -59,-26l-263 0 0 1169 347 0 0 -771c0,-46 174,-75 207,-81l267 -29 0 -322c-191,0 -303,69 -431,136 -83,43 -68,29 -68,-76z"/>
  </g>
 </g>
</svg>
